<svg xmlns="http://www.w3.org/2000/svg" width="194" height="52.253"><g data-name="Group 4850"><g data-name="Group 4845"><path data-name="Path 1441" d="M39.529 26.804h-5.111v5.007a.834.834 0 01-1.669 0v-5.007h-5.006a.834.834 0 010-1.668h5.006v-5.007a.834.834 0 011.669 0v5.007h5.007a.822.822 0 01.834.834.743.743 0 01-.73.834z" fill="#fff" stroke="#fff" stroke-miterlimit="10" stroke-width=".5"/></g><path data-name="Path 1442" d="M10.638 8.031a6.088 6.088 0 012.19-2.4 5.9 5.9 0 013.338-.835 2.51 2.51 0 001.877-.73 2.074 2.074 0 00.73-1.669 1.942 1.942 0 00-.73-1.668 2.906 2.906 0 00-1.877-.626 10.654 10.654 0 00-6.049 1.46 10.433 10.433 0 00-4.068 4.173 13.629 13.629 0 00-1.462 6.362v.939H2.398a2.634 2.634 0 00-1.773.626A2.2 2.2 0 000 15.332a2.123 2.123 0 00.625 1.564 2.456 2.456 0 001.773.626h2.189v19.921a2.229 2.229 0 00.73 1.877 2.285 2.285 0 001.773.73 2.454 2.454 0 001.982-.73 2.514 2.514 0 00.73-1.877V17.417h5.215a2.633 2.633 0 001.77-.625 2.124 2.124 0 00.626-1.565 2.2 2.2 0 00-.626-1.669 2.453 2.453 0 00-1.773-.625h-5.21V11.58a7.739 7.739 0 01.834-3.549z" fill="#fff"/><g data-name="Group 4846"><path data-name="Path 1443" d="M41.511 21.068a9.348 9.348 0 00-3.234-3.442 8.774 8.774 0 00-4.69-1.251 8.667 8.667 0 00-4.589 1.251 8.575 8.575 0 00-3.234 3.442 10.23 10.23 0 000 9.8 9.348 9.348 0 003.234 3.442 8.668 8.668 0 004.589 1.256 8.775 8.775 0 004.693-1.252 9.348 9.348 0 003.234-3.442 9.475 9.475 0 001.147-4.9 9.727 9.727 0 00-1.15-4.904z" fill="none"/><path data-name="Path 1444" d="M45.887 18.773a14.33 14.33 0 00-19.4-5.11 14.115 14.115 0 00-5.111 5.11 14.361 14.361 0 00-1.877 7.3 14.672 14.672 0 001.668 7.2 13.843 13.843 0 004.699 5.107 12.159 12.159 0 006.675 1.877 12.161 12.161 0 006.675-1.877 10.141 10.141 0 003.129-2.816v1.877a2.608 2.608 0 105.215 0V26.074a14.244 14.244 0 00-1.673-7.301zm-7.61 15.541a8.775 8.775 0 01-4.69 1.252 8.668 8.668 0 01-4.589-1.252 8.575 8.575 0 01-3.234-3.442 9.526 9.526 0 01-1.251-4.9 9.526 9.526 0 011.251-4.9 9.348 9.348 0 013.234-3.442 8.667 8.667 0 014.589-1.255 8.774 8.774 0 014.693 1.251 9.348 9.348 0 013.234 3.442 9.727 9.727 0 011.147 4.9 10.944 10.944 0 01-1.147 4.9 8.575 8.575 0 01-3.237 3.446z" fill="#149bd7"/></g><path data-name="Path 1445" d="M56.321 9.908a3.169 3.169 0 01-2.4-1.043 3.394 3.394 0 01-1.043-2.4 3.169 3.169 0 011.043-2.4 3.394 3.394 0 012.4-1.043 3.169 3.169 0 012.4 1.043 3.394 3.394 0 011.043 2.4 3.169 3.169 0 01-1.043 2.4 3.814 3.814 0 01-2.4 1.043z" fill="#1a99d6"/><path data-name="Path 1446" d="M56.321 39.946a2.5 2.5 0 01-2.607-2.607V14.601a2.229 2.229 0 01.73-1.877 2.514 2.514 0 011.877-.73 2.232 2.232 0 011.877.73 2.512 2.512 0 01.731 1.877v22.738a2.5 2.5 0 01-2.608 2.607z" fill="#149bd7"/><path data-name="Path 1447" d="M83.126 12.724a8.764 8.764 0 00-4.589-1.044 11.325 11.325 0 00-5.632 1.46 10.893 10.893 0 00-2.921 2.4v-.939a2.546 2.546 0 00-.626-1.877 3.127 3.127 0 00-3.754 0 2.546 2.546 0 00-.626 1.877v22.842a2.512 2.512 0 105.006 0V22.528a5.54 5.54 0 011.46-3.859 8.41 8.41 0 014.068-2.089 13.879 13.879 0 015.841.1 2.524 2.524 0 001.251 0 1.981 1.981 0 001.043-.521 1.756 1.756 0 00.626-1.147 2.019 2.019 0 00-1.147-2.288z" fill="#fff"/><path data-name="Path 1448" d="M103.777 35.566a1.876 1.876 0 00-1.564-.731h-1.774a3.309 3.309 0 01-2.711-1.355 5.472 5.472 0 01-1.148-3.442V17.417h4.381a2.631 2.631 0 001.773-.625 2.124 2.124 0 00.626-1.565 2.2 2.2 0 00-.626-1.669 2.453 2.453 0 00-1.773-.625H96.58v-7.3a2.514 2.514 0 00-.73-1.878 2.778 2.778 0 00-3.754 0 2.366 2.366 0 00-.731 1.878v7.4h-2.4a2.632 2.632 0 00-1.773.626 2.2 2.2 0 00-.626 1.669 2.12 2.12 0 00.626 1.564 2.454 2.454 0 001.773.626h2.4v12.62a11.859 11.859 0 001.148 5.111 9.662 9.662 0 003.233 3.546 8.756 8.756 0 004.589 1.356h.939a3.1 3.1 0 002.19-.73 2.442 2.442 0 00.835-1.878 2.973 2.973 0 00-.522-1.977z" fill="#fff"/><path data-name="Path 1449" d="M112.642 39.946a2.5 2.5 0 01-2.607-2.607V14.601a2.232 2.232 0 01.73-1.877 2.515 2.515 0 011.877-.73 2.233 2.233 0 011.878.73 2.515 2.515 0 01.73 1.877v22.738a2.515 2.515 0 01-.73 1.877 2.233 2.233 0 01-1.878.73z" fill="#fff"/><path data-name="Path 1450" d="M129.748 39.946a6.633 6.633 0 01-3.961-1.252 8.539 8.539 0 01-2.712-3.337 12.1 12.1 0 01-.938-4.9V2.607a2.51 2.51 0 01.73-1.877 2.363 2.363 0 011.877-.73 2.514 2.514 0 011.878.73 2.366 2.366 0 01.73 1.877v27.952a5.792 5.792 0 00.73 3.129 2.109 2.109 0 001.877 1.252h1.252a1.942 1.942 0 011.668.73 2.717 2.717 0 01.626 1.877 2.373 2.373 0 01-.938 1.878 4.566 4.566 0 01-2.816.521z" fill="#fff"/><path data-name="Path 1451" d="M140.803 39.946a2.5 2.5 0 01-2.607-2.607V14.601a2.229 2.229 0 01.73-1.877 2.514 2.514 0 011.877-.73 2.234 2.234 0 011.878.73 2.515 2.515 0 01.73 1.877v22.738a2.515 2.515 0 01-.73 1.877 2.234 2.234 0 01-1.878.73z" fill="#fff"/><path data-name="Path 1452" d="M164.27 35.566a1.875 1.875 0 00-1.564-.731h-1.773a3.31 3.31 0 01-2.712-1.355 5.471 5.471 0 01-1.147-3.442V17.417h4.38a2.631 2.631 0 001.773-.625 2.12 2.12 0 00.626-1.565 2.2 2.2 0 00-.626-1.669 2.453 2.453 0 00-1.773-.625h-4.38v-7.3a2.518 2.518 0 00-.73-1.878 2.369 2.369 0 00-1.878-.73 2.514 2.514 0 00-1.877.73 2.365 2.365 0 00-.73 1.878v7.4h-2.4a2.632 2.632 0 00-1.773.626 2.2 2.2 0 00-.626 1.669 2.123 2.123 0 00.626 1.564 2.454 2.454 0 001.773.626h2.4v12.62a11.858 11.858 0 001.147 5.111 9.679 9.679 0 003.233 3.546 8.76 8.76 0 004.59 1.356h.938a3.1 3.1 0 002.191-.73 2.445 2.445 0 00.834-1.878 2.967 2.967 0 00-.522-1.977z" fill="#fff"/><path data-name="Path 1453" d="M192.431 12.307a2.227 2.227 0 00-3.233 1.251l-8.24 18.566-9.387-18.67a2.852 2.852 0 00-1.356-1.356 2.381 2.381 0 00-1.877.105 2.468 2.468 0 00-1.356 1.355 2.364 2.364 0 00.1 1.878l11.472 21.8-5.11 11.473c-.73 1.46-.313 2.5 1.251 3.233a3.14 3.14 0 001.252.313 2.068 2.068 0 001.982-1.564l15.649-35.151c.835-1.56.418-2.607-1.147-3.233z" fill="#fff"/></g></svg>