<svg xmlns="http://www.w3.org/2000/svg" width="201.953" height="59.216"><g data-name="Group 4897"><path data-name="Path 275" d="M19.88 43.136l-4.528 4.606v10.746H0V0h15.352v29.963L31.03 14.689h18.184L31.03 33.441l19.72 25.051H32.163z" fill="#00baff"/><path data-name="Path 276" d="M57.587 14.685h15.352v43.8H57.587z" fill="#00baff"/><g data-name="Group 191"><path data-name="Path 277" d="M128.277 0v58.488h-14.628v-4.361q-4.283 5.089-12.85 5.089a21.752 21.752 0 01-10.909-2.788 20.128 20.128 0 01-7.8-7.958 26.29 26.29 0 010-23.885 19.966 19.966 0 017.8-7.88 22.043 22.043 0 0110.909-2.747q7.838 0 12.123 4.525V0zm-17.7 44.224q2.585-2.784 2.584-7.717a10.755 10.755 0 00-2.543-7.6 8.579 8.579 0 00-6.588-2.747 8.7 8.7 0 00-6.626 2.747 10.635 10.635 0 00-2.587 7.6q0 4.931 2.587 7.717a8.626 8.626 0 006.626 2.788 8.54 8.54 0 006.549-2.788z" fill="#00baff"/></g><g data-name="Group 193"><g data-name="Group 192"><path data-name="Path 278" d="M170.284 20.873h-9.2v8.982h-8.383v-8.982h-9.256v-7.951h9.257V3.944h8.383v8.982h9.2z" fill="#00baff"/></g></g><text transform="translate(183.953 13.269)" fill="#00baff" font-size="12" font-family="SegoeUI, Segoe UI"><tspan x="0" y="0">TM</tspan></text></g></svg>