<svg xmlns="http://www.w3.org/2000/svg" width="249.101" height="59.288"><g data-name="Group 3709"><g data-name="Group 3208"><path data-name="Path 275" d="M19.904 43.189l-4.534 4.612v10.763H0V.001h15.371v30l15.7-15.292h18.206L31.071 33.483l19.742 25.081H32.202z" fill="#637ff7"/><path data-name="Path 276" d="M57.657 14.704h15.371V58.56H57.657z" fill="#637ff7"/><g data-name="Group 191"><path data-name="Path 277" d="M128.432.001v58.563h-14.646v-4.367q-4.288 5.1-12.866 5.1a21.779 21.779 0 01-10.922-2.791 20.152 20.152 0 01-7.808-7.968 26.322 26.322 0 010-23.914 19.991 19.991 0 017.808-7.889 22.069 22.069 0 0110.922-2.75q7.847 0 12.137 4.53V.001zm-17.719 44.277q2.588-2.788 2.587-7.726a10.768 10.768 0 00-2.546-7.607 8.59 8.59 0 00-6.6-2.75 8.711 8.711 0 00-6.634 2.75 10.648 10.648 0 00-2.59 7.607q0 4.937 2.59 7.726a8.636 8.636 0 006.634 2.791 8.55 8.55 0 006.559-2.791z" fill="#637ff7"/></g><g data-name="Group 193"><g data-name="Group 192"><path data-name="Path 278" d="M171.344 20.898h-9.21v8.993h-8.393v-8.993h-9.268v-7.961h9.268V3.949h8.393v8.992h9.21z" fill="#637ff7"/></g></g><text transform="translate(185.03 12.272)" fill="#637ff7" font-size="11" font-family="Montserrat-Bold, Montserrat" font-weight="700"><tspan x="0" y="0">TM</tspan></text></g><path data-name="Path 603" d="M210.927 50.052v8.561h-26.244V51.83l11.831-10.945a9.767 9.767 0 002.058-2.479 4.48 4.48 0 00.515-2.012 2.325 2.325 0 00-.819-1.895 3.616 3.616 0 00-2.362-.678 5.316 5.316 0 00-2.807.8 5.217 5.217 0 00-2.012 2.246l-8.322-4.171a13.667 13.667 0 015.473-5.544 17.431 17.431 0 018.7-2.035 17.563 17.563 0 016.876 1.268 10.749 10.749 0 014.678 3.6 8.971 8.971 0 011.684 5.38 11.475 11.475 0 01-1.146 5.076 19.03 19.03 0 01-4.468 5.356l-4.678 4.257zm3.555-24.186h16.14a22.276 22.276 0 019.66 1.988 15.128 15.128 0 016.5 5.684 16.046 16.046 0 012.316 8.7 16.046 16.046 0 01-2.316 8.7 15.128 15.128 0 01-6.5 5.684 22.276 22.276 0 01-9.66 1.988h-16.139zm15.673 24.139a7.882 7.882 0 005.684-2.035 7.553 7.553 0 002.129-5.731 7.553 7.553 0 00-2.129-5.731 7.882 7.882 0 00-5.684-2.035h-4.632v15.532z" fill="#637ff7"/></g></svg>