<svg xmlns="http://www.w3.org/2000/svg" width="19" height="27.088"><path data-name="Path 1423" d="M9.49 27.084c-.54-.734-1.055-1.415-1.551-2.111a76.674 76.674 0 01-5.995-9.565 16.458 16.458 0 01-1.843-4.911 8.681 8.681 0 011.633-6.465A9.451 9.451 0 0111.643.246a9.539 9.539 0 017.26 7.789 9.071 9.071 0 01-.75 4.98 41.518 41.518 0 01-3.889 7.207c-1.469 2.225-3.027 4.391-4.547 6.583-.052.079-.116.147-.227.279zm.04-22.168a4.576 4.576 0 00-4.619 4.539 4.6 4.6 0 004.523 4.644 4.6 4.6 0 004.661-4.548A4.58 4.58 0 009.529 4.92z" fill="#00baff"/></svg>