<svg xmlns="http://www.w3.org/2000/svg" width="24.648" height="18.475"><g data-name="Group 4804"><g data-name="Group 4803" fill="#00baff"><path data-name="Path 1425" d="M2.647 0h19.352l1.079.361-10.755 9.4L1.565.353z"/><path data-name="Path 1426" d="M0 2.646c.109-.316.214-.632.328-.946a2.042 2.042 0 01.15-.27l7.711 6.742L.368 16.92 0 15.828z"/><path data-name="Path 1427" d="M1.444 18.001l7.891-8.825 2 1.752.435.38a.76.76 0 001.1 0q1.142-1 2.282-1.994c.047-.041.1-.081.157-.133l7.889 8.822a2.9 2.9 0 01-1.565.474H2.979a2.924 2.924 0 01-1.535-.476z"/><path data-name="Path 1428" d="M24.168 1.432a2.865 2.865 0 01.478 1.528q.005 6.266 0 12.531a2.829 2.829 0 01-.4 1.4l-7.792-8.713z"/></g></g></svg>