<svg xmlns="http://www.w3.org/2000/svg" width="18" height="24.655"><path data-name="Path 1424" d="M0 22.077l1.895-3.3c.39-.675.788-1.346 1.185-2.018a.954.954 0 011.466-.381c.708.413 1.415.828 2.116 1.254a1 1 0 001.154-.018 4.855 4.855 0 001.437-1.574c.856-1.408 1.7-2.825 2.5-4.267a20.486 20.486 0 00.906-2.1 2.276 2.276 0 00.123-.49.967.967 0 00-.585-1.228q-1-.582-2-1.173a.951.951 0 01-.384-1.465q1.4-2.393 2.807-4.786a.929.929 0 01.9-.529 1.027 1.027 0 01.432.126q1.147.666 2.28 1.355a3 3 0 011.072 1.307 7.12 7.12 0 01.689 3.058 14.678 14.678 0 01-1.223 5.936 30.239 30.239 0 01-5.575 9 12.61 12.61 0 01-4.469 3.333 6 6 0 01-3.321.474 2.446 2.446 0 01-.765-.269c-.641-.352-1.259-.745-1.9-1.1a1.416 1.416 0 01-.745-.8z" fill="#00baff"/></svg>