<svg xmlns="http://www.w3.org/2000/svg" width="119.084" height="147.903"><g data-name="Group 163"><path data-name="Path 261" d="M18.357 6.954l3.293.887.887 3.293a1.038 1.038 0 002.005 0l.888-3.293 3.293-.887a1.038 1.038 0 000-2.005l-3.293-.888-.888-3.293a1.038 1.038 0 00-2.005 0l-.887 3.293-3.293.888a1.038 1.038 0 000 2.005z"/><path data-name="Path 262" d="M7.54 74.875l-1.877-.5-.506-1.879a1.038 1.038 0 00-2.005 0l-.506 1.879-1.877.5a1.038 1.038 0 000 2.005l1.877.507.506 1.876a1.038 1.038 0 002.005 0l.506-1.876 1.877-.507a1.038 1.038 0 000-2.005z"/><path data-name="Path 263" d="M93.444 97.286l1.446 5.4 8.615 32.156a1.384 1.384 0 01-1.828 1.652l-11.293-4.278a5.526 5.526 0 00-6.253 1.674l-3.15 3.856-4.491 5.5a1.385 1.385 0 01-2.41-.518l-7.533-28.116-1.772-6.613c-.43-.09-.85-.158-1.265-.209l-1.546 5.768 8.1 30.246a5.537 5.537 0 009.639 2.071l7.642-9.354a1.384 1.384 0 011.563-.418l11.293 4.279a5.539 5.539 0 007.314-6.613l-10.2-38.05a23.527 23.527 0 00-3.871 1.567z"/><path data-name="Path 264" d="M63.512 107.784a10.187 10.187 0 00-1.2-.083 13.306 13.306 0 00-3.2.463l-1.783 6.656-7.477 27.9a1.385 1.385 0 01-2.41.518l-7.641-9.354a5.532 5.532 0 00-6.252-1.675l-5.427 2.056-5.867 2.223a1.384 1.384 0 01-1.83-1.651l8.679-32.39 1.466-5.474a31.245 31.245 0 00-3.906-1.469l-10.251 38.257a5.539 5.539 0 007.313 6.613l11.295-4.279a1.382 1.382 0 011.562.418l7.642 9.354a5.539 5.539 0 009.639-2.071l8.1-30.246z"/><path data-name="Path 265" d="M114.411 46.185a21.7 21.7 0 01-3.365-5.554 22.742 22.742 0 01-.6-6.756c.011-3.794.024-7.717-2.206-10.781-2.253-3.1-6.007-4.3-9.639-5.457a22.413 22.413 0 01-6.175-2.626 22.145 22.145 0 01-4.328-5c-2.235-3.121-4.545-6.349-8.24-7.548-3.539-1.15-7.231.062-10.8 1.235a23.032 23.032 0 01-6.746 1.538 23.033 23.033 0 01-6.746-1.538c-3.569-1.173-7.262-2.386-10.8-1.235-3.695 1.2-6.005 4.426-8.24 7.548a22.144 22.144 0 01-4.33 5 22.417 22.417 0 01-6.175 2.62c-3.633 1.16-7.388 2.361-9.641 5.457-2.229 3.064-2.218 6.988-2.205 10.782a22.745 22.745 0 01-.6 6.756 21.756 21.756 0 01-3.365 5.555c-2.188 2.964-4.668 6.324-4.668 10.281s2.48 7.317 4.668 10.282a21.733 21.733 0 013.365 5.554 22.743 22.743 0 01.6 6.756c-.011 3.794-.024 7.717 2.206 10.781 2.253 3.1 6.009 4.3 9.64 5.458l.642.206a31.246 31.246 0 013.906 1.469 10.46 10.46 0 011.627.947 22.137 22.137 0 014.328 5.006c2.235 3.121 4.545 6.349 8.239 7.548 3.54 1.151 7.232-.063 10.8-1.235 1.218-.4 2.4-.788 3.543-1.076a13.308 13.308 0 013.2-.463 10.187 10.187 0 011.2.083c.415.051.836.119 1.266.209a42.32 42.32 0 014.279 1.246 25.592 25.592 0 007.751 1.7 9.8 9.8 0 003.05-.463c3.694-1.2 6-4.428 8.239-7.549a22.083 22.083 0 014.329-5.006 9.359 9.359 0 011.019-.634 23.518 23.518 0 013.879-1.574c.421-.138.845-.275 1.277-.413 3.631-1.16 7.387-2.36 9.64-5.457 2.23-3.064 2.218-6.988 2.206-10.782a22.734 22.734 0 01.6-6.755 21.741 21.741 0 013.365-5.556c2.188-2.964 4.668-6.324 4.668-10.281s-2.472-7.313-4.663-10.278zm-7.316 24.836a25.989 25.989 0 00-.805 8.052c.01 3.27.019 6.359-1.411 8.324-1.453 2-4.413 2.944-7.546 3.945a25.677 25.677 0 00-7.356 3.219 25.4 25.4 0 00-5.262 5.948c-1.928 2.694-3.749 5.238-6.143 6.015-2.249.731-5.151-.223-8.223-1.232a26.349 26.349 0 00-8.042-1.745 26.307 26.307 0 00-8.041 1.745c-3.072 1.009-5.972 1.961-8.223 1.23-2.4-.777-4.216-3.32-6.144-6.014a25.349 25.349 0 00-5.262-5.948 25.632 25.632 0 00-7.356-3.219c-3.133-1-6.092-1.947-7.546-3.945-1.431-1.966-1.42-5.054-1.41-8.325a26.028 26.028 0 00-.805-8.052 24.928 24.928 0 00-3.974-6.738c-1.984-2.687-3.856-5.224-3.856-7.815s1.873-5.128 3.856-7.815a24.917 24.917 0 003.974-6.739 26.024 26.024 0 00.805-8.052c-.01-3.27-.019-6.358 1.41-8.324 1.453-2 4.413-2.943 7.546-3.945a25.632 25.632 0 007.356-3.219 25.324 25.324 0 005.262-5.948c1.928-2.694 3.75-5.238 6.144-6.015 2.249-.729 5.15.223 8.222 1.232a26.322 26.322 0 008.042 1.745 26.314 26.314 0 008.042-1.745c3.072-1.009 5.974-1.961 8.223-1.232 2.394.778 4.216 3.322 6.144 6.015a25.323 25.323 0 005.262 5.948 25.624 25.624 0 007.354 3.219c3.134 1 6.092 1.947 7.546 3.945 1.431 1.966 1.422 5.054 1.411 8.325a25.993 25.993 0 00.805 8.052 24.924 24.924 0 003.973 6.738c1.984 2.687 3.858 5.224 3.858 7.815s-1.874 5.128-3.856 7.815a24.886 24.886 0 00-3.97 6.74z"/><path data-name="Path 266" d="M91.935 69.937a32.522 32.522 0 01-54.236 7.791 2.073 2.073 0 00-2.877-.251c-.017.014-.035.023-.052.036a2.078 2.078 0 00-.215 2.93 36.491 36.491 0 0024.557 12.579q1.6.141 3.189.139a36.8 36.8 0 0033.412-21.5 2.077 2.077 0 00-1.028-2.752c-.023-.01-.046-.014-.069-.024a2.072 2.072 0 00-2.681 1.052z"/><path data-name="Path 267" d="M37.022 36.007a32.5 32.5 0 0149-1.8 2.075 2.075 0 002.885.133c.016-.015.035-.024.051-.04a2.078 2.078 0 00.1-2.936 36.656 36.656 0 00-55.257 2.025 2.077 2.077 0 00.3 2.921c.019.016.04.025.058.04a2.068 2.068 0 002.865-.343z"/><path data-name="Path 268" d="M33.237 41.237a2.076 2.076 0 10-2.08 2.077 2.069 2.069 0 002.08-2.077z"/></g></svg>