<svg xmlns="http://www.w3.org/2000/svg" width="194" height="52.253" viewBox="0 0 194 52.253">
  <g id="Group_4850" data-name="Group 4850" transform="translate(-2.213 -2.22)">
    <g id="Group_4845" data-name="Group 4845">
      <path id="Path_1441" data-name="Path 1441" d="M41.742,29.024H36.631v5.007a.834.834,0,0,1-1.669,0V29.024H29.956a.834.834,0,0,1,0-1.668h5.006V22.349a.834.834,0,0,1,1.669,0v5.007h5.007a.822.822,0,0,1,.834.834A.743.743,0,0,1,41.742,29.024Z" fill="#fff" stroke="#fff" stroke-miterlimit="10" stroke-width="0.5"/>
    </g>
    <path id="Path_1442" data-name="Path 1442" d="M12.851,10.251a6.088,6.088,0,0,1,2.19-2.4,5.9,5.9,0,0,1,3.338-.835,2.51,2.51,0,0,0,1.877-.73,2.074,2.074,0,0,0,.73-1.669,1.942,1.942,0,0,0-.73-1.668,2.906,2.906,0,0,0-1.877-.626,10.654,10.654,0,0,0-6.049,1.46A10.433,10.433,0,0,0,8.262,7.956,13.629,13.629,0,0,0,6.8,14.318v.939H4.611a2.634,2.634,0,0,0-1.773.626,2.2,2.2,0,0,0-.625,1.669,2.123,2.123,0,0,0,.625,1.564,2.456,2.456,0,0,0,1.773.626H6.8V39.663a2.229,2.229,0,0,0,.73,1.877,2.285,2.285,0,0,0,1.773.73,2.454,2.454,0,0,0,1.982-.73,2.514,2.514,0,0,0,.73-1.877V19.637h5.215A2.633,2.633,0,0,0,19,19.012a2.124,2.124,0,0,0,.626-1.565A2.2,2.2,0,0,0,19,15.778a2.453,2.453,0,0,0-1.773-.625H12.017V13.8A7.739,7.739,0,0,1,12.851,10.251Z" fill="#fff"/>
    <g id="Group_4846" data-name="Group 4846">
      <path id="Path_1443" data-name="Path 1443" d="M43.724,23.288a9.348,9.348,0,0,0-3.234-3.442A8.774,8.774,0,0,0,35.8,18.595a8.667,8.667,0,0,0-4.589,1.251,8.575,8.575,0,0,0-3.234,3.442,10.23,10.23,0,0,0,0,9.8,9.348,9.348,0,0,0,3.234,3.442A8.668,8.668,0,0,0,35.8,37.786a8.775,8.775,0,0,0,4.693-1.252,9.348,9.348,0,0,0,3.234-3.442,9.475,9.475,0,0,0,1.147-4.9A9.727,9.727,0,0,0,43.724,23.288Z" fill="none"/>
      <path id="Path_1444" data-name="Path 1444" d="M48.1,20.993a14.33,14.33,0,0,0-19.4-5.11,14.115,14.115,0,0,0-5.111,5.11,14.361,14.361,0,0,0-1.877,7.3,14.672,14.672,0,0,0,1.668,7.2A13.843,13.843,0,0,0,28.079,40.6a12.159,12.159,0,0,0,6.675,1.877A12.161,12.161,0,0,0,41.429,40.6a10.141,10.141,0,0,0,3.129-2.816v1.877a2.608,2.608,0,1,0,5.215,0V28.294A14.244,14.244,0,0,0,48.1,20.993ZM40.49,36.534A8.775,8.775,0,0,1,35.8,37.786a8.668,8.668,0,0,1-4.589-1.252,8.575,8.575,0,0,1-3.234-3.442,9.526,9.526,0,0,1-1.251-4.9,9.526,9.526,0,0,1,1.251-4.9,9.348,9.348,0,0,1,3.234-3.442A8.667,8.667,0,0,1,35.8,18.595a8.774,8.774,0,0,1,4.693,1.251,9.348,9.348,0,0,1,3.234,3.442,9.727,9.727,0,0,1,1.147,4.9,10.944,10.944,0,0,1-1.147,4.9A8.575,8.575,0,0,1,40.49,36.534Z" fill="#149bd7"/>
    </g>
    <path id="Path_1445" data-name="Path 1445" d="M58.534,12.128a3.169,3.169,0,0,1-2.4-1.043,3.394,3.394,0,0,1-1.043-2.4,3.169,3.169,0,0,1,1.043-2.4,3.394,3.394,0,0,1,2.4-1.043,3.169,3.169,0,0,1,2.4,1.043,3.394,3.394,0,0,1,1.043,2.4,3.169,3.169,0,0,1-1.043,2.4A3.814,3.814,0,0,1,58.534,12.128Z" fill="#1a99d6"/>
    <path id="Path_1446" data-name="Path 1446" d="M58.534,42.166a2.5,2.5,0,0,1-2.607-2.607V16.821a2.229,2.229,0,0,1,.73-1.877,2.514,2.514,0,0,1,1.877-.73,2.232,2.232,0,0,1,1.877.73,2.512,2.512,0,0,1,.731,1.877V39.559a2.5,2.5,0,0,1-2.608,2.607Z" fill="#149bd7"/>
    <path id="Path_1447" data-name="Path 1447" d="M85.339,14.944A8.764,8.764,0,0,0,80.75,13.9a11.325,11.325,0,0,0-5.632,1.46,10.893,10.893,0,0,0-2.921,2.4v-.939a2.546,2.546,0,0,0-.626-1.877,3.127,3.127,0,0,0-3.754,0,2.546,2.546,0,0,0-.626,1.877V39.663a2.512,2.512,0,1,0,5.006,0V24.748a5.54,5.54,0,0,1,1.46-3.859A8.41,8.41,0,0,1,77.725,18.8a13.879,13.879,0,0,1,5.841.1,2.524,2.524,0,0,0,1.251,0,1.981,1.981,0,0,0,1.043-.521,1.756,1.756,0,0,0,.626-1.147A2.019,2.019,0,0,0,85.339,14.944Z" fill="#fff"/>
    <path id="Path_1448" data-name="Path 1448" d="M105.99,37.786a1.876,1.876,0,0,0-1.564-.731h-1.774A3.309,3.309,0,0,1,99.941,35.7a5.472,5.472,0,0,1-1.148-3.442V19.637h4.381a2.631,2.631,0,0,0,1.773-.625,2.124,2.124,0,0,0,.626-1.565,2.2,2.2,0,0,0-.626-1.669,2.453,2.453,0,0,0-1.773-.625H98.793v-7.3a2.514,2.514,0,0,0-.73-1.878,2.778,2.778,0,0,0-3.754,0,2.366,2.366,0,0,0-.731,1.878v7.4h-2.4a2.632,2.632,0,0,0-1.773.626,2.2,2.2,0,0,0-.626,1.669,2.12,2.12,0,0,0,.626,1.564,2.454,2.454,0,0,0,1.773.626h2.4v12.62a11.859,11.859,0,0,0,1.148,5.111,9.662,9.662,0,0,0,3.233,3.546,8.756,8.756,0,0,0,4.589,1.356h.939a3.1,3.1,0,0,0,2.19-.73,2.442,2.442,0,0,0,.835-1.878A2.973,2.973,0,0,0,105.99,37.786Z" fill="#fff"/>
    <path id="Path_1449" data-name="Path 1449" d="M114.855,42.166a2.5,2.5,0,0,1-2.607-2.607V16.821a2.232,2.232,0,0,1,.73-1.877,2.515,2.515,0,0,1,1.877-.73,2.233,2.233,0,0,1,1.878.73,2.515,2.515,0,0,1,.73,1.877V39.559a2.515,2.515,0,0,1-.73,1.877A2.233,2.233,0,0,1,114.855,42.166Z" fill="#fff"/>
    <path id="Path_1450" data-name="Path 1450" d="M131.961,42.166A6.633,6.633,0,0,1,128,40.914a8.539,8.539,0,0,1-2.712-3.337,12.1,12.1,0,0,1-.938-4.9V4.827a2.51,2.51,0,0,1,.73-1.877,2.363,2.363,0,0,1,1.877-.73,2.514,2.514,0,0,1,1.878.73,2.366,2.366,0,0,1,.73,1.877V32.779a5.792,5.792,0,0,0,.73,3.129,2.109,2.109,0,0,0,1.877,1.252h1.252a1.942,1.942,0,0,1,1.668.73,2.717,2.717,0,0,1,.626,1.877,2.373,2.373,0,0,1-.938,1.878,4.566,4.566,0,0,1-2.816.521Z" fill="#fff"/>
    <path id="Path_1451" data-name="Path 1451" d="M143.016,42.166a2.5,2.5,0,0,1-2.607-2.607V16.821a2.229,2.229,0,0,1,.73-1.877,2.514,2.514,0,0,1,1.877-.73,2.234,2.234,0,0,1,1.878.73,2.515,2.515,0,0,1,.73,1.877V39.559a2.515,2.515,0,0,1-.73,1.877A2.234,2.234,0,0,1,143.016,42.166Z" fill="#fff"/>
    <path id="Path_1452" data-name="Path 1452" d="M166.483,37.786a1.875,1.875,0,0,0-1.564-.731h-1.773a3.31,3.31,0,0,1-2.712-1.355,5.471,5.471,0,0,1-1.147-3.442V19.637h4.38a2.631,2.631,0,0,0,1.773-.625,2.12,2.12,0,0,0,.626-1.565,2.2,2.2,0,0,0-.626-1.669,2.453,2.453,0,0,0-1.773-.625h-4.38v-7.3a2.518,2.518,0,0,0-.73-1.878,2.369,2.369,0,0,0-1.878-.73,2.514,2.514,0,0,0-1.877.73,2.365,2.365,0,0,0-.73,1.878v7.4h-2.4a2.632,2.632,0,0,0-1.773.626,2.2,2.2,0,0,0-.626,1.669,2.123,2.123,0,0,0,.626,1.564,2.454,2.454,0,0,0,1.773.626h2.4v12.62a11.858,11.858,0,0,0,1.147,5.111,9.679,9.679,0,0,0,3.233,3.546,8.76,8.76,0,0,0,4.59,1.356h.938a3.1,3.1,0,0,0,2.191-.73,2.445,2.445,0,0,0,.834-1.878A2.967,2.967,0,0,0,166.483,37.786Z" fill="#fff"/>
    <path id="Path_1453" data-name="Path 1453" d="M194.644,14.527a2.227,2.227,0,0,0-3.233,1.251l-8.24,18.566-9.387-18.67a2.852,2.852,0,0,0-1.356-1.356,2.381,2.381,0,0,0-1.877.105,2.468,2.468,0,0,0-1.356,1.355,2.364,2.364,0,0,0,.1,1.878l11.472,21.8-5.11,11.473c-.73,1.46-.313,2.5,1.251,3.233a3.14,3.14,0,0,0,1.252.313,2.068,2.068,0,0,0,1.982-1.564L195.791,17.76C196.626,16.2,196.209,15.153,194.644,14.527Z" fill="#fff"/>
  </g>
</svg>
