<svg xmlns="http://www.w3.org/2000/svg" width="249.101" height="59.288" viewBox="0 0 249.101 59.288">
  <g id="Group_3709" data-name="Group 3709" transform="translate(0 -9.054)">
    <g id="Group_3208" data-name="Group 3208" transform="translate(0 0)">
      <path id="Path_275" data-name="Path 275" d="M392.458,532.625l-4.534,4.612V548H372.554V489.437h15.371v30l15.7-15.292h18.206l-18.206,18.774L423.367,548H404.756Z" transform="translate(-372.554 -480.382)" fill="#637ff7"/>
      <path id="Path_276" data-name="Path 276" d="M389.494,493.757h15.371v43.856H389.494Z" transform="translate(-331.837 -469.999)" fill="#637ff7"/>
      <g id="Group_191" data-name="Group 191" transform="translate(79.318 9.055)" style="isolation: isolate">
        <path id="Path_277" data-name="Path 277" d="M444.972,489.437V548H430.326v-4.367q-4.288,5.1-12.866,5.1a21.779,21.779,0,0,1-10.922-2.791,20.152,20.152,0,0,1-7.808-7.968,26.322,26.322,0,0,1,0-23.914,19.991,19.991,0,0,1,7.808-7.889,22.069,22.069,0,0,1,10.922-2.75q7.847,0,12.137,4.53V489.437Zm-17.719,44.277q2.588-2.788,2.587-7.726a10.768,10.768,0,0,0-2.546-7.607,8.59,8.59,0,0,0-6.6-2.75,8.711,8.711,0,0,0-6.634,2.75,10.648,10.648,0,0,0-2.59,7.607q0,4.937,2.59,7.726a8.636,8.636,0,0,0,6.634,2.791A8.55,8.55,0,0,0,427.253,533.714Z" transform="translate(-395.858 -489.437)" fill="#637ff7"/>
      </g>
      <g id="Group_193" data-name="Group 193" transform="translate(144.473 12.999)">
        <g id="Group_192" data-name="Group 192" style="isolation: isolate">
          <path id="Path_278" data-name="Path 278" d="M441.621,507.549h-9.21v8.993h-8.393v-8.993H414.75v-7.961h9.268V490.6h8.393v8.992h9.21Z" transform="translate(-414.75 -490.596)" fill="#637ff7"/>
        </g>
      </g>
      <text id="TM" transform="translate(185.03 21.326)" fill="#637ff7" font-size="11" font-family="Montserrat-Bold, Montserrat" font-weight="700"><tspan x="0" y="0">TM</tspan></text>
    </g>
    <path id="Path_603" data-name="Path 603" d="M27.213-27.333v8.561H.969v-6.783L12.8-36.5a9.767,9.767,0,0,0,2.058-2.479,4.48,4.48,0,0,0,.515-2.012,2.325,2.325,0,0,0-.819-1.895,3.616,3.616,0,0,0-2.362-.678,5.316,5.316,0,0,0-2.807.8,5.217,5.217,0,0,0-2.012,2.246L-.949-44.689a13.667,13.667,0,0,1,5.473-5.544,17.431,17.431,0,0,1,8.7-2.035A17.563,17.563,0,0,1,20.1-51a10.749,10.749,0,0,1,4.678,3.6,8.971,8.971,0,0,1,1.684,5.38,11.475,11.475,0,0,1-1.146,5.076,19.03,19.03,0,0,1-4.468,5.356l-4.678,4.257Zm3.555-24.186h16.14a22.276,22.276,0,0,1,9.66,1.988,15.128,15.128,0,0,1,6.5,5.684,16.046,16.046,0,0,1,2.316,8.7,16.046,16.046,0,0,1-2.316,8.7,15.128,15.128,0,0,1-6.5,5.684,22.276,22.276,0,0,1-9.66,1.988H30.769ZM46.441-27.38a7.882,7.882,0,0,0,5.684-2.035,7.553,7.553,0,0,0,2.129-5.731,7.553,7.553,0,0,0-2.129-5.731,7.882,7.882,0,0,0-5.684-2.035H41.809V-27.38Z" transform="translate(183.714 86.439)" fill="#637ff7"/>
  </g>
</svg>
