<svg xmlns="http://www.w3.org/2000/svg" width="19" height="27.088" viewBox="0 0 19 27.088">
  <path id="Path_1423" data-name="Path 1423" d="M-676.487,1236.4c-.54-.734-1.055-1.415-1.551-2.111a76.674,76.674,0,0,1-5.995-9.565,16.458,16.458,0,0,1-1.843-4.911,8.681,8.681,0,0,1,1.633-6.465,9.451,9.451,0,0,1,9.909-3.786,9.539,9.539,0,0,1,7.26,7.789,9.071,9.071,0,0,1-.75,4.98,41.518,41.518,0,0,1-3.889,7.207c-1.469,2.225-3.027,4.391-4.547,6.583C-676.312,1236.2-676.376,1236.268-676.487,1236.4Zm.04-22.168a4.576,4.576,0,0,0-4.619,4.539,4.6,4.6,0,0,0,4.523,4.644,4.6,4.6,0,0,0,4.661-4.548A4.58,4.58,0,0,0-676.448,1214.236Z" transform="translate(685.977 -1209.316)" fill="#00baff"/>
</svg>
