<svg xmlns="http://www.w3.org/2000/svg" width="24.648" height="18.475" viewBox="0 0 24.648 18.475">
  <g id="Group_4804" data-name="Group 4804" transform="translate(-508 -1372)">
    <g id="Group_4803" data-name="Group 4803" transform="translate(1257.593 178.631)">
      <path id="Path_1425" data-name="Path 1425" d="M-716.036,1193.369h19.352l1.079.361-10.755,9.4-10.758-9.408Z" transform="translate(-30.91)" fill="#00baff"/>
      <path id="Path_1426" data-name="Path 1426" d="M-749.593,1224.232c.109-.316.214-.632.328-.946a2.042,2.042,0,0,1,.15-.27l7.711,6.742-7.821,8.748-.368-1.092Z" transform="translate(0 -28.217)" fill="#00baff"/>
      <path id="Path_1427" data-name="Path 1427" d="M-719.647,1392.432l7.891-8.825,2,1.752.435.38a.76.76,0,0,0,1.1,0q1.142-1,2.282-1.994c.047-.041.1-.081.157-.133l7.889,8.822a2.9,2.9,0,0,1-1.565.474h-14.9c-1.252,0-2.5,0-3.754,0A2.924,2.924,0,0,1-719.647,1392.432Z" transform="translate(-28.502 -181.062)" fill="#00baff"/>
      <path id="Path_1428" data-name="Path 1428" d="M-400.671,1223.048a2.865,2.865,0,0,1,.478,1.528q.005,6.266,0,12.531a2.829,2.829,0,0,1-.4,1.4l-7.792-8.713Z" transform="translate(-324.754 -28.247)" fill="#00baff"/>
    </g>
  </g>
</svg>
