<svg xmlns="http://www.w3.org/2000/svg" width="18" height="24.655" viewBox="0 0 18 24.655">
  <path id="Path_1424" data-name="Path 1424" d="M-596.481,1157.607q.947-1.649,1.895-3.3c.39-.675.788-1.346,1.185-2.018a.954.954,0,0,1,1.466-.381c.708.413,1.415.828,2.116,1.254a1,1,0,0,0,1.154-.018,4.855,4.855,0,0,0,1.437-1.574c.856-1.408,1.7-2.825,2.5-4.267a20.486,20.486,0,0,0,.906-2.1,2.276,2.276,0,0,0,.123-.49.967.967,0,0,0-.585-1.228q-1-.582-2-1.173a.951.951,0,0,1-.384-1.465q1.4-2.393,2.807-4.786a.929.929,0,0,1,.9-.529,1.027,1.027,0,0,1,.432.126q1.147.666,2.28,1.355a3,3,0,0,1,1.072,1.307,7.12,7.12,0,0,1,.689,3.058,14.678,14.678,0,0,1-1.223,5.936,30.239,30.239,0,0,1-5.575,9,12.61,12.61,0,0,1-4.469,3.333,6,6,0,0,1-3.321.474,2.446,2.446,0,0,1-.765-.269c-.641-.352-1.259-.745-1.9-1.1a1.416,1.416,0,0,1-.745-.8Z" transform="translate(596.481 -1135.53)" fill="#00baff"/>
</svg>
