<svg xmlns="http://www.w3.org/2000/svg" width="119.084" height="147.903" viewBox="0 0 119.084 147.903">
  <g id="Group_163" data-name="Group 163" transform="translate(0)">
    <path id="Path_261" data-name="Path 261" d="M243.451,310.174l3.293.887.887,3.293a1.038,1.038,0,0,0,2.005,0l.888-3.293,3.293-.887a1.038,1.038,0,0,0,0-2.005l-3.293-.888-.888-3.293a1.038,1.038,0,0,0-2.005,0l-.887,3.293-3.293.888a1.038,1.038,0,0,0,0,2.005Z" transform="translate(-225.094 -303.22)"/>
    <path id="Path_262" data-name="Path 262" d="M234.67,369.791l-1.877-.5-.506-1.879a1.038,1.038,0,0,0-2.005,0l-.506,1.879-1.877.5a1.038,1.038,0,0,0,0,2.005l1.877.507.506,1.876a1.038,1.038,0,0,0,2.005,0l.506-1.876,1.877-.507a1.038,1.038,0,0,0,0-2.005Z" transform="translate(-227.13 -294.916)"/>
    <path id="Path_263" data-name="Path 263" d="M313.4,389.425l1.446,5.4,8.615,32.156a1.384,1.384,0,0,1-1.828,1.652l-11.293-4.278a5.526,5.526,0,0,0-6.253,1.674l-3.15,3.856-4.491,5.5a1.385,1.385,0,0,1-2.41-.518l-7.533-28.116-1.772-6.613c-.43-.09-.85-.158-1.265-.209l-1.546,5.768,8.1,30.246a5.537,5.537,0,0,0,9.639,2.071l7.642-9.354a1.384,1.384,0,0,1,1.563-.418l11.293,4.279a5.539,5.539,0,0,0,7.314-6.613l-10.2-38.05A23.527,23.527,0,0,0,313.4,389.425Z" transform="translate(-219.956 -292.139)"/>
    <path id="Path_264" data-name="Path 264" d="M288.764,399.947a10.187,10.187,0,0,0-1.2-.083,13.306,13.306,0,0,0-3.2.463l-1.783,6.656-7.477,27.9a1.385,1.385,0,0,1-2.41.518l-7.641-9.354a5.532,5.532,0,0,0-6.252-1.675l-5.427,2.056-5.867,2.223A1.384,1.384,0,0,1,245.677,427l8.679-32.39,1.466-5.474a31.245,31.245,0,0,0-3.906-1.469l-10.251,38.257a5.539,5.539,0,0,0,7.313,6.613l11.295-4.279a1.382,1.382,0,0,1,1.562.418l7.642,9.354a5.539,5.539,0,0,0,9.639-2.071l8.1-30.246Z" transform="translate(-225.252 -292.163)"/>
    <path id="Path_265" data-name="Path 265" d="M340.9,349.174a21.7,21.7,0,0,1-3.365-5.554,22.742,22.742,0,0,1-.6-6.756c.011-3.794.024-7.717-2.206-10.781-2.253-3.1-6.007-4.3-9.639-5.457A22.413,22.413,0,0,1,318.915,318,22.145,22.145,0,0,1,314.587,313c-2.235-3.121-4.545-6.349-8.24-7.548-3.539-1.15-7.231.062-10.8,1.235a23.032,23.032,0,0,1-6.746,1.538,23.033,23.033,0,0,1-6.746-1.538c-3.569-1.173-7.262-2.386-10.8-1.235-3.695,1.2-6.005,4.426-8.24,7.548A22.144,22.144,0,0,1,258.685,318a22.417,22.417,0,0,1-6.175,2.62c-3.633,1.16-7.388,2.361-9.641,5.457-2.229,3.064-2.218,6.988-2.205,10.782a22.745,22.745,0,0,1-.6,6.756,21.756,21.756,0,0,1-3.365,5.555c-2.188,2.964-4.668,6.324-4.668,10.281s2.48,7.317,4.668,10.282a21.733,21.733,0,0,1,3.365,5.554,22.743,22.743,0,0,1,.6,6.756c-.011,3.794-.024,7.717,2.206,10.781,2.253,3.1,6.009,4.3,9.64,5.458l.642.206a31.246,31.246,0,0,1,3.906,1.469,10.46,10.46,0,0,1,1.627.947,22.137,22.137,0,0,1,4.328,5.006c2.235,3.121,4.545,6.349,8.239,7.548,3.54,1.151,7.232-.063,10.8-1.235,1.218-.4,2.4-.788,3.543-1.076a13.308,13.308,0,0,1,3.2-.463,10.187,10.187,0,0,1,1.2.083c.415.051.836.119,1.266.209a42.32,42.32,0,0,1,4.279,1.246,25.592,25.592,0,0,0,7.751,1.7,9.8,9.8,0,0,0,3.05-.463c3.694-1.2,6-4.428,8.239-7.549a22.083,22.083,0,0,1,4.329-5.006,9.359,9.359,0,0,1,1.019-.634,23.518,23.518,0,0,1,3.879-1.574c.421-.138.845-.275,1.277-.413,3.631-1.16,7.387-2.36,9.64-5.457,2.23-3.064,2.218-6.988,2.206-10.782a22.734,22.734,0,0,1,.6-6.755,21.741,21.741,0,0,1,3.365-5.556c2.188-2.964,4.668-6.324,4.668-10.281S343.091,352.139,340.9,349.174Zm-7.316,24.836a25.989,25.989,0,0,0-.805,8.052c.01,3.27.019,6.359-1.411,8.324-1.453,2-4.413,2.944-7.546,3.945a25.677,25.677,0,0,0-7.356,3.219,25.4,25.4,0,0,0-5.262,5.948c-1.928,2.694-3.749,5.238-6.143,6.015-2.249.731-5.151-.223-8.223-1.232a26.349,26.349,0,0,0-8.042-1.745,26.307,26.307,0,0,0-8.041,1.745c-3.072,1.009-5.972,1.961-8.223,1.23-2.4-.777-4.216-3.32-6.144-6.014a25.349,25.349,0,0,0-5.262-5.948,25.632,25.632,0,0,0-7.356-3.219c-3.133-1-6.092-1.947-7.546-3.945-1.431-1.966-1.42-5.054-1.41-8.325a26.028,26.028,0,0,0-.805-8.052,24.928,24.928,0,0,0-3.974-6.738c-1.984-2.687-3.856-5.224-3.856-7.815s1.873-5.128,3.856-7.815a24.917,24.917,0,0,0,3.974-6.739,26.024,26.024,0,0,0,.805-8.052c-.01-3.27-.019-6.358,1.41-8.324,1.453-2,4.413-2.943,7.546-3.945a25.632,25.632,0,0,0,7.356-3.219,25.324,25.324,0,0,0,5.262-5.948c1.928-2.694,3.75-5.238,6.144-6.015,2.249-.729,5.15.223,8.222,1.232a26.322,26.322,0,0,0,8.042,1.745,26.314,26.314,0,0,0,8.042-1.745c3.072-1.009,5.974-1.961,8.223-1.232,2.394.778,4.216,3.322,6.144,6.015a25.323,25.323,0,0,0,5.262,5.948,25.624,25.624,0,0,0,7.354,3.219c3.134,1,6.092,1.947,7.546,3.945,1.431,1.966,1.422,5.054,1.411,8.325a25.993,25.993,0,0,0,.805,8.052,24.924,24.924,0,0,0,3.973,6.738c1.984,2.687,3.858,5.224,3.858,7.815s-1.874,5.128-3.856,7.815A24.886,24.886,0,0,0,333.588,374.01Z" transform="translate(-226.489 -302.989)"/>
    <path id="Path_266" data-name="Path 266" d="M315.123,365.2a32.522,32.522,0,0,1-54.236,7.791,2.073,2.073,0,0,0-2.877-.251c-.017.014-.035.023-.052.036a2.078,2.078,0,0,0-.215,2.93A36.491,36.491,0,0,0,282.3,388.285q1.6.141,3.189.139a36.8,36.8,0,0,0,33.412-21.5,2.077,2.077,0,0,0-1.028-2.752c-.023-.01-.046-.014-.069-.024A2.072,2.072,0,0,0,315.123,365.2Z" transform="translate(-223.188 -295.263)"/>
    <path id="Path_267" data-name="Path 267" d="M260.293,336.938a32.5,32.5,0,0,1,49-1.8,2.075,2.075,0,0,0,2.885.133c.016-.015.035-.024.051-.04a2.078,2.078,0,0,0,.1-2.936,36.656,36.656,0,0,0-55.257,2.025,2.077,2.077,0,0,0,.3,2.921c.019.016.04.025.058.04a2.068,2.068,0,0,0,2.865-.343Z" transform="translate(-223.271 -300.931)"/>
    <path id="Path_268" data-name="Path 268" d="M257,339.923A2.076,2.076,0,1,0,254.92,342,2.069,2.069,0,0,0,257,339.923Z" transform="translate(-223.763 -298.686)"/>
  </g>
</svg>
